<svg xmlns="http://www.w3.org/2000/svg" viewBox="0 0 106 20" class="c-cZuCZG c-cZuCZG-gtZKQU-size-large c-cZuCZG-dmsdwv-rotate-up c-cZuCZG-iePLXrC-css"><path fill-rule="evenodd" clip-rule="evenodd" d="M28.7773 11.115H30.3824C31.6507 11.115 32.391 10.4755 32.391 9.29928C32.391 8.10821 31.6655 7.46875 30.3898 7.46875H28.7773V11.115ZM30.9715 5.66602C33.1488 5.66602 34.6372 7.11134 34.6372 9.29057C34.6372 11.4478 33.0902 12.8934 30.8616 12.8934H28.7727V16.1471H26.5586V5.66602H30.9715Z" fill="#10847E"/><mask id="mask0_2147_109150" maskUnits="userSpaceOnUse" x="26" y="5" width="9" height="12" style="mask-type: alpha;"><path fill-rule="evenodd" clip-rule="evenodd" d="M26.5586 5.66602V16.1473H28.7727V12.8932H30.8618C33.0905 12.8932 34.6372 11.4476 34.6372 9.29057C34.6372 7.11134 33.1491 5.66602 30.9717 5.66602H26.5586ZM28.7754 7.46875H30.3879C31.6638 7.46875 32.3893 8.10794 32.3893 9.29902C32.3893 10.4755 31.649 11.115 30.3805 11.115H28.7754V7.46875Z" fill="white"/></mask><g mask="url(#mask0_2147_109150)"><path fill-rule="evenodd" clip-rule="evenodd" d="M-97.7441 915.325H739.361V-12.6211H-97.7441V915.325Z" fill="#10847E"/></g><path fill-rule="evenodd" clip-rule="evenodd" d="M35.9316 5.07617H38.0282V9.44866H38.1603C38.5339 8.53326 39.4137 7.98164 40.6011 7.98164C42.3385 7.98164 43.3721 9.06372 43.3721 10.9887V16.1456H41.2389V11.4898C41.2389 10.3786 40.7184 9.80477 39.7508 9.80477C38.6802 9.80477 38.0646 10.5093 38.0646 11.548V16.1456H35.9316V5.07617Z" fill="#10847E"/><mask id="mask1_2147_109150" maskUnits="userSpaceOnUse" x="35" y="5" width="9" height="12" style="mask-type: alpha;"><path fill-rule="evenodd" clip-rule="evenodd" d="M35.9336 5.07812V16.1476H38.0666V11.5497C38.0666 10.5113 38.6822 9.80672 39.7528 9.80672C40.7201 9.80672 41.2408 10.3806 41.2408 11.4917V16.1476H43.3738V10.9904C43.3738 9.06567 42.3405 7.98359 40.603 7.98359C39.4157 7.98359 38.5358 8.53521 38.162 9.45061H38.0299V5.07812H35.9336Z" fill="white"/></mask><g mask="url(#mask1_2147_109150)"><path fill-rule="evenodd" clip-rule="evenodd" d="M-97.7441 915.323H739.361V-12.623H-97.7441V915.323Z" fill="#10847E"/></g><path fill-rule="evenodd" clip-rule="evenodd" d="M49.7954 13.2466V12.6582L48.1605 12.7601C47.2442 12.8254 46.7969 13.1521 46.7969 13.726C46.7969 14.3215 47.3176 14.685 48.058 14.685C49.0477 14.685 49.7954 14.0601 49.7954 13.2466ZM44.709 13.8631C44.709 12.4106 45.8303 11.5677 47.8391 11.4516L49.7964 11.3352V10.6817C49.7964 10.0131 49.3124 9.63558 48.4325 9.63558C47.6629 9.63558 47.1498 9.89697 46.9741 10.3764H45.0094C45.1484 8.89479 46.5194 7.96484 48.5498 7.96484C50.6908 7.96484 51.9001 8.96729 51.9001 10.6817V16.1508H49.8331V15.105H49.701C49.2833 15.8389 48.4035 16.2746 47.3551 16.2746C45.801 16.2746 44.709 15.3301 44.709 13.8631Z" fill="#10847E"/><mask id="mask2_2147_109150" maskUnits="userSpaceOnUse" x="44" y="7" width="8" height="10" style="mask-type: alpha;"><path fill-rule="evenodd" clip-rule="evenodd" d="M45.0113 10.3783H46.976C47.1517 9.89866 47.6648 9.63753 48.4347 9.63753C49.3146 9.63753 49.7983 10.0151 49.7983 10.6836V11.3371L47.8411 11.4533C45.8325 11.5697 44.7109 12.4123 44.7109 13.8648C44.7109 15.3318 45.8029 16.2766 47.3573 16.2766C48.4054 16.2766 49.2852 15.8408 49.703 15.1069H49.8351V16.153H51.902V10.6836C51.902 8.96924 50.6927 7.9668 48.5518 7.9668C46.5213 7.9668 45.1506 8.89648 45.0113 10.3783ZM46.7988 13.7279C46.7988 13.1541 47.2459 12.8274 48.1622 12.762L49.7971 12.6602V13.2486C49.7971 14.0621 49.0497 14.687 48.0597 14.687C47.3193 14.687 46.7988 14.3235 46.7988 13.7279Z" fill="white"/></mask><g mask="url(#mask2_2147_109150)"><path fill-rule="evenodd" clip-rule="evenodd" d="M-97.7422 915.329H739.363V-12.6172H-97.7422V915.329Z" fill="#10847E"/></g><path fill-rule="evenodd" clip-rule="evenodd" d="M53.7012 8.13487H55.7684V9.41325H55.8999C56.1129 8.614 56.9486 8.00391 57.9748 8.00391C58.2681 8.00391 58.6274 8.04042 58.8105 8.10603V10.0305C58.6417 9.9654 58.1434 9.89979 57.7991 9.89979C56.6337 9.89979 55.8342 10.5826 55.8342 11.7086V16.1462H53.7012V8.13487Z" fill="#10847E"/><mask id="mask3_2147_109150" maskUnits="userSpaceOnUse" x="53" y="8" width="6" height="9" style="mask-type: alpha;"><path fill-rule="evenodd" clip-rule="evenodd" d="M55.9039 9.41325H55.7723V8.13487H53.7051V16.1465H55.8383V11.7086C55.8383 10.5826 56.6376 9.89979 57.803 9.89979C58.1475 9.89979 58.6456 9.9654 58.8144 10.0305V8.10576C58.6311 8.04042 58.272 8.00391 57.9787 8.00391C56.9525 8.00391 56.1168 8.614 55.9039 9.41325Z" fill="white"/></mask><g mask="url(#mask3_2147_109150)"><path fill-rule="evenodd" clip-rule="evenodd" d="M-97.7441 915.321H739.361V-12.625H-97.7441V915.321Z" fill="#10847E"/></g><path fill-rule="evenodd" clip-rule="evenodd" d="M60.041 8.13555H62.108V9.44277H62.2398C62.5698 8.52764 63.4129 7.96094 64.4758 7.96094C65.6119 7.96094 66.389 8.51309 66.7116 9.44277H66.8437C67.2173 8.54933 68.1484 7.96094 69.2771 7.96094C70.8901 7.96094 71.8941 8.99962 71.8941 10.6487V16.1469H69.7611V11.208C69.7611 10.2563 69.3141 9.78406 68.4126 9.78406C67.5473 9.78406 66.9903 10.3942 66.9903 11.2445V16.1469H64.9374V11.1209C64.9374 10.2709 64.4391 9.78406 63.6031 9.78406C62.7677 9.78406 62.174 10.4309 62.174 11.3241V16.1469H60.041V8.13555Z" fill="#10847E"/><mask id="mask4_2147_109150" maskUnits="userSpaceOnUse" x="60" y="7" width="12" height="10" style="mask-type: alpha;"><path fill-rule="evenodd" clip-rule="evenodd" d="M66.844 9.44668H66.7116C66.3892 8.51699 65.6122 7.96484 64.4758 7.96484C63.4129 7.96484 62.5701 8.53181 62.2401 9.44668H62.1082V8.13946H60.041V16.1511H62.174V11.328C62.174 10.4348 62.768 9.78823 63.6034 9.78823C64.4391 9.78823 64.9374 10.2748 64.9374 11.1248V16.1511H66.9903V11.2484C66.9903 10.3981 67.5476 9.78823 68.4126 9.78823C69.3141 9.78823 69.7614 10.2602 69.7614 11.2119V16.1511H71.8944V10.6526C71.8944 9.00327 70.8901 7.96484 69.2771 7.96484C68.1484 7.96484 67.2173 8.55324 66.844 9.44668Z" fill="white"/></mask><g mask="url(#mask4_2147_109150)"><path fill-rule="evenodd" clip-rule="evenodd" d="M-97.7422 915.329H739.363V-12.6172H-97.7422V915.329Z" fill="#10847E"/></g><path fill-rule="evenodd" clip-rule="evenodd" d="M80.883 16.1468H73.875V5.66602H80.883V7.53967H76.0888V9.98771H80.6119V11.7233H76.0888V14.2729H80.883V16.1468Z" fill="#10847E"/><mask id="mask5_2147_109150" maskUnits="userSpaceOnUse" x="73" y="5" width="8" height="12" style="mask-type: alpha;"><path fill-rule="evenodd" clip-rule="evenodd" d="M73.8828 5.66602V16.1471H80.8911V14.2732H76.0969V11.7233H80.6197V9.98771H76.0969V7.53967H80.8911V5.66602H73.8828Z" fill="white"/></mask><g mask="url(#mask5_2147_109150)"><path fill-rule="evenodd" clip-rule="evenodd" d="M-97.7422 915.325H739.363V-12.6211H-97.7422V915.325Z" fill="#10847E"/></g><path fill-rule="evenodd" clip-rule="evenodd" d="M87.061 13.2466V12.6582L85.4261 12.7601C84.5101 12.8254 84.0625 13.1521 84.0625 13.726C84.0625 14.3215 84.5833 14.685 85.3236 14.685C86.3133 14.685 87.061 14.0601 87.061 13.2466ZM81.9746 13.8631C81.9746 12.4106 83.0959 11.5677 85.1047 11.4516L87.062 11.3352V10.6817C87.062 10.0131 86.5782 9.63558 85.6984 9.63558C84.9288 9.63558 84.4154 9.89697 84.2397 10.3764H82.275C82.414 8.89479 83.785 7.96484 85.8155 7.96484C87.9564 7.96484 89.1659 8.96729 89.1659 10.6817V16.1508H87.0987V15.105H86.9666C86.5489 15.8389 85.6691 16.2746 84.621 16.2746C83.0669 16.2746 81.9746 15.3301 81.9746 13.8631Z" fill="#10847E"/><mask id="mask6_2147_109150" maskUnits="userSpaceOnUse" x="81" y="7" width="9" height="10" style="mask-type: alpha;"><path fill-rule="evenodd" clip-rule="evenodd" d="M82.275 10.3783H84.2397C84.4154 9.89866 84.9288 9.63753 85.6984 9.63753C86.5782 9.63753 87.062 10.0151 87.062 10.6836V11.3371L85.1047 11.4533C83.0959 11.5697 81.9746 12.4123 81.9746 13.8648C81.9746 15.3318 83.0669 16.2766 84.621 16.2766C85.6691 16.2766 86.5489 15.8408 86.9664 15.1069H87.0987V16.153H89.1659V10.6836C89.1659 8.96924 87.9564 7.9668 85.8155 7.9668C83.7847 7.9668 82.414 8.89648 82.275 10.3783ZM84.0625 13.7279C84.0625 13.1541 84.5101 12.8274 85.4261 12.762L87.061 12.6602V13.2486C87.061 14.0621 86.3133 14.687 85.3236 14.687C84.5833 14.687 84.0625 14.3235 84.0625 13.7279Z" fill="white"/></mask><g mask="url(#mask6_2147_109150)"><path fill-rule="evenodd" clip-rule="evenodd" d="M-97.7402 915.329H739.365V-12.6172H-97.7402V915.329Z" fill="#10847E"/></g><path fill-rule="evenodd" clip-rule="evenodd" d="M93.8439 7.96094C95.8968 7.96094 97.1064 8.81072 97.2234 10.3436H95.2514C95.1414 9.82798 94.6505 9.50812 93.8587 9.50812C93.0962 9.50812 92.5318 9.84994 92.5318 10.3582C92.5318 10.7503 92.8763 10.99 93.6241 11.1572L95.1414 11.4836C96.7103 11.8255 97.4142 12.4792 97.4142 13.6774C97.4142 15.2751 95.97 16.3218 93.8513 16.3218C91.7183 16.3218 90.4279 15.4572 90.2812 13.9174H92.3632C92.5244 14.4621 93.0452 14.7743 93.8951 14.7743C94.7237 14.7743 95.2955 14.4328 95.2955 13.9174C95.2955 13.525 94.9874 13.2853 94.2764 13.1329L92.8106 12.8057C91.2417 12.4644 90.4791 11.7236 90.4791 10.4889C90.4791 8.97052 91.8282 7.96094 93.8439 7.96094Z" fill="#10847E"/><mask id="mask7_2147_109150" maskUnits="userSpaceOnUse" x="90" y="7" width="8" height="10" style="mask-type: alpha;"><path fill-rule="evenodd" clip-rule="evenodd" d="M90.4769 10.4928C90.4769 11.7272 91.24 12.4683 92.8086 12.8098L94.2742 13.1368C94.9855 13.2892 95.2935 13.5289 95.2935 13.921C95.2935 14.4367 94.7218 14.7782 93.8932 14.7782C93.043 14.7782 92.5222 14.466 92.361 13.921H90.2793C90.4259 15.4611 91.7163 16.3254 93.8493 16.3254C95.9678 16.3254 97.4122 15.2793 97.4122 13.6816C97.4122 12.4831 96.7081 11.8294 95.1395 11.4875L93.6221 11.1611C92.8741 10.9939 92.5299 10.7542 92.5299 10.3621C92.5299 9.85358 93.0942 9.51203 93.8565 9.51203C94.6483 9.51203 95.1395 9.83162 95.2491 10.3475H97.2215C97.1042 8.81463 95.8946 7.96484 93.8417 7.96484C91.8263 7.96484 90.4769 8.97443 90.4769 10.4928Z" fill="white"/></mask><g mask="url(#mask7_2147_109150)"><path fill-rule="evenodd" clip-rule="evenodd" d="M-97.752 915.329H739.353V-12.6172H-97.752V915.329Z" fill="#10847E"/></g><path fill-rule="evenodd" clip-rule="evenodd" d="M98.536 19.0351V17.3355C98.6092 17.3503 98.9318 17.3503 99.0196 17.3503C99.8185 17.3503 100.273 17.0958 100.449 16.4857L100.523 16.1955L97.6855 8.13281H100.039L101.739 14.2049H101.871L103.572 8.13281H105.83L103.044 16.268C102.355 18.3308 101.365 19.057 99.3496 19.057C99.2687 19.057 98.624 19.0499 98.536 19.0351Z" fill="#10847E"/><mask id="mask8_2147_109150" maskUnits="userSpaceOnUse" x="97" y="8" width="9" height="12" style="mask-type: alpha;"><path fill-rule="evenodd" clip-rule="evenodd" d="M103.566 8.13672L101.865 14.2088H101.734L100.033 8.13672H97.6797L100.517 16.1991L100.443 16.4896C100.267 17.0997 99.8127 17.3542 99.0137 17.3542C98.926 17.3542 98.6034 17.3542 98.5302 17.3394V19.039C98.6182 19.0535 99.2628 19.0609 99.3437 19.0609C101.359 19.0609 102.349 18.3347 103.038 16.2719L105.824 8.13672H103.566Z" fill="white"/></mask><g mask="url(#mask8_2147_109150)"><path fill-rule="evenodd" clip-rule="evenodd" d="M-97.748 915.325H739.357V-12.6211H-97.748V915.325Z" fill="#10847E"/></g><path fill-rule="evenodd" clip-rule="evenodd" d="M10.0053 10.2162C9.51276 9.74317 8.80045 9.75058 8.31535 10.2088C7.30764 11.1549 6.32266 12.1232 5.33741 13.0844C5.04968 13.3696 4.93581 13.7302 5.0267 14.1278C5.23146 15.1115 6.40589 15.4721 7.17131 14.7813C7.78508 14.218 8.36846 13.64 8.9595 13.0545C9.14154 12.8743 9.25516 12.8365 9.45966 13.0394C10.3614 13.9402 11.2859 14.8263 12.218 15.6972C12.4225 15.8925 12.3998 16.0052 12.1953 16.1854C11.5966 16.7484 10.9979 17.3264 10.4069 17.9048C10.0206 18.2876 9.94475 18.7606 10.1493 19.2488C10.3538 19.7443 10.7704 19.9771 11.2027 19.9996C11.6421 20.007 11.9451 19.9094 12.1726 19.6766C13.1726 18.7231 14.1729 17.777 15.1505 16.801C15.6203 16.328 15.6203 15.6448 15.1429 15.1792C13.4379 13.505 11.7329 11.8605 10.0053 10.2162Z" fill="#10847E"/><mask id="mask9_2147_109150" maskUnits="userSpaceOnUse" x="4" y="9" width="12" height="11" style="mask-type: alpha;"><path fill-rule="evenodd" clip-rule="evenodd" d="M8.31524 10.2088C7.30753 11.1549 6.32255 12.1232 5.33757 13.0844C5.04957 13.3696 4.93596 13.7304 5.02659 14.1281C5.23135 15.1117 6.40578 15.4721 7.17146 14.7813C7.78497 14.2183 8.36835 13.6402 8.95965 13.0542C9.14143 12.8743 9.25504 12.8367 9.45954 13.0394C10.3616 13.9402 11.2858 14.8263 12.2179 15.6972C12.4224 15.8927 12.4 16.0052 12.1952 16.1854C11.5968 16.7486 10.9978 17.3264 10.4067 17.9045C10.0205 18.2876 9.94464 18.7606 10.1491 19.2488C10.3536 19.7443 10.7706 19.9771 11.2026 19.9996C11.6419 20.0073 11.9453 19.9094 12.1725 19.6766C13.1728 18.7233 14.1728 17.777 15.1504 16.801C15.6202 16.328 15.6202 15.6448 15.1428 15.1792C13.4378 13.505 11.7328 11.8605 10.0054 10.2162C9.75916 9.97969 9.45796 9.86328 9.15755 9.86328C8.8574 9.86328 8.55779 9.97969 8.31524 10.2088Z" fill="white"/></mask><g mask="url(#mask9_2147_109150)"><path fill-rule="evenodd" clip-rule="evenodd" d="M-97.7461 915.323H739.359V-12.623H-97.7461V915.323Z" fill="#10847E"/></g><path fill-rule="evenodd" clip-rule="evenodd" d="M28.7773 11.115H30.3824C31.6507 11.115 32.391 10.4755 32.391 9.29928C32.391 8.10821 31.6655 7.46875 30.3898 7.46875H28.7773V11.115ZM30.9715 5.66602C33.1488 5.66602 34.6372 7.11134 34.6372 9.29057C34.6372 11.4478 33.0902 12.8934 30.8616 12.8934H28.7727V16.1471H26.5586V5.66602H30.9715Z" fill="#10847E"/><mask id="mask10_2147_109150" maskUnits="userSpaceOnUse" x="26" y="5" width="9" height="12" style="mask-type: alpha;"><path fill-rule="evenodd" clip-rule="evenodd" d="M26.5586 5.66602V16.1473H28.7727V12.8932H30.8618C33.0905 12.8932 34.6372 11.4476 34.6372 9.29057C34.6372 7.11134 33.1491 5.66602 30.9717 5.66602H26.5586ZM28.7754 7.46875H30.3879C31.6638 7.46875 32.3893 8.10794 32.3893 9.29902C32.3893 10.4755 31.649 11.115 30.3805 11.115H28.7754V7.46875Z" fill="white"/></mask><g mask="url(#mask10_2147_109150)"><path fill-rule="evenodd" clip-rule="evenodd" d="M-97.7441 915.325H739.361V-12.6211H-97.7441V915.325Z" fill="#10847E"/></g><path fill-rule="evenodd" clip-rule="evenodd" d="M35.9316 5.07617H38.0282V9.44866H38.1603C38.5339 8.53326 39.4137 7.98164 40.6011 7.98164C42.3385 7.98164 43.3721 9.06372 43.3721 10.9887V16.1456H41.2389V11.4898C41.2389 10.3786 40.7184 9.80477 39.7508 9.80477C38.6802 9.80477 38.0646 10.5093 38.0646 11.548V16.1456H35.9316V5.07617Z" fill="#10847E"/><mask id="mask11_2147_109150" maskUnits="userSpaceOnUse" x="35" y="5" width="9" height="12" style="mask-type: alpha;"><path fill-rule="evenodd" clip-rule="evenodd" d="M35.9336 5.07812V16.1476H38.0666V11.5497C38.0666 10.5113 38.6822 9.80672 39.7528 9.80672C40.7201 9.80672 41.2408 10.3806 41.2408 11.4917V16.1476H43.3738V10.9904C43.3738 9.06567 42.3405 7.98359 40.603 7.98359C39.4157 7.98359 38.5358 8.53521 38.162 9.45061H38.0299V5.07812H35.9336Z" fill="white"/></mask><g mask="url(#mask11_2147_109150)"><path fill-rule="evenodd" clip-rule="evenodd" d="M-97.7441 915.323H739.361V-12.623H-97.7441V915.323Z" fill="#10847E"/></g><path fill-rule="evenodd" clip-rule="evenodd" d="M49.7954 13.2466V12.6582L48.1605 12.7601C47.2442 12.8254 46.7969 13.1521 46.7969 13.726C46.7969 14.3215 47.3176 14.685 48.058 14.685C49.0477 14.685 49.7954 14.0601 49.7954 13.2466ZM44.709 13.8631C44.709 12.4106 45.8303 11.5677 47.8391 11.4516L49.7964 11.3352V10.6817C49.7964 10.0131 49.3124 9.63558 48.4325 9.63558C47.6629 9.63558 47.1498 9.89697 46.9741 10.3764H45.0094C45.1484 8.89479 46.5194 7.96484 48.5498 7.96484C50.6908 7.96484 51.9001 8.96729 51.9001 10.6817V16.1508H49.8331V15.105H49.701C49.2833 15.8389 48.4035 16.2746 47.3551 16.2746C45.801 16.2746 44.709 15.3301 44.709 13.8631Z" fill="#10847E"/><mask id="mask12_2147_109150" maskUnits="userSpaceOnUse" x="44" y="7" width="8" height="10" style="mask-type: alpha;"><path fill-rule="evenodd" clip-rule="evenodd" d="M45.0113 10.3783H46.976C47.1517 9.89866 47.6648 9.63753 48.4347 9.63753C49.3146 9.63753 49.7983 10.0151 49.7983 10.6836V11.3371L47.8411 11.4533C45.8325 11.5697 44.7109 12.4123 44.7109 13.8648C44.7109 15.3318 45.8029 16.2766 47.3573 16.2766C48.4054 16.2766 49.2852 15.8408 49.703 15.1069H49.8351V16.153H51.902V10.6836C51.902 8.96924 50.6927 7.9668 48.5518 7.9668C46.5213 7.9668 45.1506 8.89648 45.0113 10.3783ZM46.7988 13.7279C46.7988 13.1541 47.2459 12.8274 48.1622 12.762L49.7971 12.6602V13.2486C49.7971 14.0621 49.0497 14.687 48.0597 14.687C47.3193 14.687 46.7988 14.3235 46.7988 13.7279Z" fill="white"/></mask><g mask="url(#mask12_2147_109150)"><path fill-rule="evenodd" clip-rule="evenodd" d="M-97.7422 915.329H739.363V-12.6172H-97.7422V915.329Z" fill="#10847E"/></g><path fill-rule="evenodd" clip-rule="evenodd" d="M53.7012 8.13487H55.7684V9.41325H55.8999C56.1129 8.614 56.9486 8.00391 57.9748 8.00391C58.2681 8.00391 58.6274 8.04042 58.8105 8.10603V10.0305C58.6417 9.9654 58.1434 9.89979 57.7991 9.89979C56.6337 9.89979 55.8342 10.5826 55.8342 11.7086V16.1462H53.7012V8.13487Z" fill="#10847E"/><mask id="mask13_2147_109150" maskUnits="userSpaceOnUse" x="53" y="8" width="6" height="9" style="mask-type: alpha;"><path fill-rule="evenodd" clip-rule="evenodd" d="M55.9039 9.41325H55.7723V8.13487H53.7051V16.1465H55.8383V11.7086C55.8383 10.5826 56.6376 9.89979 57.803 9.89979C58.1475 9.89979 58.6456 9.9654 58.8144 10.0305V8.10576C58.6311 8.04042 58.272 8.00391 57.9787 8.00391C56.9525 8.00391 56.1168 8.614 55.9039 9.41325Z" fill="white"/></mask><g mask="url(#mask13_2147_109150)"><path fill-rule="evenodd" clip-rule="evenodd" d="M-97.7441 915.321H739.361V-12.625H-97.7441V915.321Z" fill="#10847E"/></g><path fill-rule="evenodd" clip-rule="evenodd" d="M60.041 8.13555H62.108V9.44277H62.2398C62.5698 8.52764 63.4129 7.96094 64.4758 7.96094C65.6119 7.96094 66.389 8.51309 66.7116 9.44277H66.8437C67.2173 8.54933 68.1484 7.96094 69.2771 7.96094C70.8901 7.96094 71.8941 8.99962 71.8941 10.6487V16.1469H69.7611V11.208C69.7611 10.2563 69.3141 9.78406 68.4126 9.78406C67.5473 9.78406 66.9903 10.3942 66.9903 11.2445V16.1469H64.9374V11.1209C64.9374 10.2709 64.4391 9.78406 63.6031 9.78406C62.7677 9.78406 62.174 10.4309 62.174 11.3241V16.1469H60.041V8.13555Z" fill="#10847E"/><mask id="mask14_2147_109150" maskUnits="userSpaceOnUse" x="60" y="7" width="12" height="10" style="mask-type: alpha;"><path fill-rule="evenodd" clip-rule="evenodd" d="M66.844 9.44668H66.7116C66.3892 8.51699 65.6122 7.96484 64.4758 7.96484C63.4129 7.96484 62.5701 8.53181 62.2401 9.44668H62.1082V8.13946H60.041V16.1511H62.174V11.328C62.174 10.4348 62.768 9.78823 63.6034 9.78823C64.4391 9.78823 64.9374 10.2748 64.9374 11.1248V16.1511H66.9903V11.2484C66.9903 10.3981 67.5476 9.78823 68.4126 9.78823C69.3141 9.78823 69.7614 10.2602 69.7614 11.2119V16.1511H71.8944V10.6526C71.8944 9.00327 70.8901 7.96484 69.2771 7.96484C68.1484 7.96484 67.2173 8.55324 66.844 9.44668Z" fill="white"/></mask><g mask="url(#mask14_2147_109150)"><path fill-rule="evenodd" clip-rule="evenodd" d="M-97.7422 915.329H739.363V-12.6172H-97.7422V915.329Z" fill="#10847E"/></g><path fill-rule="evenodd" clip-rule="evenodd" d="M80.883 16.1468H73.875V5.66602H80.883V7.53967H76.0888V9.98771H80.6119V11.7233H76.0888V14.2729H80.883V16.1468Z" fill="#10847E"/><mask id="mask15_2147_109150" maskUnits="userSpaceOnUse" x="73" y="5" width="8" height="12" style="mask-type: alpha;"><path fill-rule="evenodd" clip-rule="evenodd" d="M73.8828 5.66602V16.1471H80.8911V14.2732H76.0969V11.7233H80.6197V9.98771H76.0969V7.53967H80.8911V5.66602H73.8828Z" fill="white"/></mask><g mask="url(#mask15_2147_109150)"><path fill-rule="evenodd" clip-rule="evenodd" d="M-97.7422 915.325H739.363V-12.6211H-97.7422V915.325Z" fill="#10847E"/></g><path fill-rule="evenodd" clip-rule="evenodd" d="M87.061 13.2466V12.6582L85.4261 12.7601C84.5101 12.8254 84.0625 13.1521 84.0625 13.726C84.0625 14.3215 84.5833 14.685 85.3236 14.685C86.3133 14.685 87.061 14.0601 87.061 13.2466ZM81.9746 13.8631C81.9746 12.4106 83.0959 11.5677 85.1047 11.4516L87.062 11.3352V10.6817C87.062 10.0131 86.5782 9.63558 85.6984 9.63558C84.9288 9.63558 84.4154 9.89697 84.2397 10.3764H82.275C82.414 8.89479 83.785 7.96484 85.8155 7.96484C87.9564 7.96484 89.1659 8.96729 89.1659 10.6817V16.1508H87.0987V15.105H86.9666C86.5489 15.8389 85.6691 16.2746 84.621 16.2746C83.0669 16.2746 81.9746 15.3301 81.9746 13.8631Z" fill="#10847E"/><mask id="mask16_2147_109150" maskUnits="userSpaceOnUse" x="81" y="7" width="9" height="10" style="mask-type: alpha;"><path fill-rule="evenodd" clip-rule="evenodd" d="M82.275 10.3783H84.2397C84.4154 9.89866 84.9288 9.63753 85.6984 9.63753C86.5782 9.63753 87.062 10.0151 87.062 10.6836V11.3371L85.1047 11.4533C83.0959 11.5697 81.9746 12.4123 81.9746 13.8648C81.9746 15.3318 83.0669 16.2766 84.621 16.2766C85.6691 16.2766 86.5489 15.8408 86.9664 15.1069H87.0987V16.153H89.1659V10.6836C89.1659 8.96924 87.9564 7.9668 85.8155 7.9668C83.7847 7.9668 82.414 8.89648 82.275 10.3783ZM84.0625 13.7279C84.0625 13.1541 84.5101 12.8274 85.4261 12.762L87.061 12.6602V13.2486C87.061 14.0621 86.3133 14.687 85.3236 14.687C84.5833 14.687 84.0625 14.3235 84.0625 13.7279Z" fill="white"/></mask><g mask="url(#mask16_2147_109150)"><path fill-rule="evenodd" clip-rule="evenodd" d="M-97.7402 915.329H739.365V-12.6172H-97.7402V915.329Z" fill="#10847E"/></g><path fill-rule="evenodd" clip-rule="evenodd" d="M93.8439 7.96094C95.8968 7.96094 97.1064 8.81072 97.2234 10.3436H95.2514C95.1414 9.82798 94.6505 9.50812 93.8587 9.50812C93.0962 9.50812 92.5318 9.84994 92.5318 10.3582C92.5318 10.7503 92.8763 10.99 93.6241 11.1572L95.1414 11.4836C96.7103 11.8255 97.4142 12.4792 97.4142 13.6774C97.4142 15.2751 95.97 16.3218 93.8513 16.3218C91.7183 16.3218 90.4279 15.4572 90.2812 13.9174H92.3632C92.5244 14.4621 93.0452 14.7743 93.8951 14.7743C94.7237 14.7743 95.2955 14.4328 95.2955 13.9174C95.2955 13.525 94.9874 13.2853 94.2764 13.1329L92.8106 12.8057C91.2417 12.4644 90.4791 11.7236 90.4791 10.4889C90.4791 8.97052 91.8282 7.96094 93.8439 7.96094Z" fill="#10847E"/><mask id="mask17_2147_109150" maskUnits="userSpaceOnUse" x="90" y="7" width="8" height="10" style="mask-type: alpha;"><path fill-rule="evenodd" clip-rule="evenodd" d="M90.4769 10.4928C90.4769 11.7272 91.24 12.4683 92.8086 12.8098L94.2742 13.1368C94.9855 13.2892 95.2935 13.5289 95.2935 13.921C95.2935 14.4367 94.7218 14.7782 93.8932 14.7782C93.043 14.7782 92.5222 14.466 92.361 13.921H90.2793C90.4259 15.4611 91.7163 16.3254 93.8493 16.3254C95.9678 16.3254 97.4122 15.2793 97.4122 13.6816C97.4122 12.4831 96.7081 11.8294 95.1395 11.4875L93.6221 11.1611C92.8741 10.9939 92.5299 10.7542 92.5299 10.3621C92.5299 9.85358 93.0942 9.51203 93.8565 9.51203C94.6483 9.51203 95.1395 9.83162 95.2491 10.3475H97.2215C97.1042 8.81463 95.8946 7.96484 93.8417 7.96484C91.8263 7.96484 90.4769 8.97443 90.4769 10.4928Z" fill="white"/></mask><g mask="url(#mask17_2147_109150)"><path fill-rule="evenodd" clip-rule="evenodd" d="M-97.752 915.329H739.353V-12.6172H-97.752V915.329Z" fill="#10847E"/></g><path fill-rule="evenodd" clip-rule="evenodd" d="M98.536 19.0351V17.3355C98.6092 17.3503 98.9318 17.3503 99.0196 17.3503C99.8185 17.3503 100.273 17.0958 100.449 16.4857L100.523 16.1955L97.6855 8.13281H100.039L101.739 14.2049H101.871L103.572 8.13281H105.83L103.044 16.268C102.355 18.3308 101.365 19.057 99.3496 19.057C99.2687 19.057 98.624 19.0499 98.536 19.0351Z" fill="#10847E"/><mask id="mask18_2147_109150" maskUnits="userSpaceOnUse" x="97" y="8" width="9" height="12" style="mask-type: alpha;"><path fill-rule="evenodd" clip-rule="evenodd" d="M103.566 8.13672L101.865 14.2088H101.734L100.033 8.13672H97.6797L100.517 16.1991L100.443 16.4896C100.267 17.0997 99.8127 17.3542 99.0137 17.3542C98.926 17.3542 98.6034 17.3542 98.5302 17.3394V19.039C98.6182 19.0535 99.2628 19.0609 99.3437 19.0609C101.359 19.0609 102.349 18.3347 103.038 16.2719L105.824 8.13672H103.566Z" fill="white"/></mask><g mask="url(#mask18_2147_109150)"><path fill-rule="evenodd" clip-rule="evenodd" d="M-97.748 915.325H739.357V-12.6211H-97.748V915.325Z" fill="#10847E"/></g><path fill-rule="evenodd" clip-rule="evenodd" d="M10.0053 10.2162C9.51276 9.74317 8.80045 9.75058 8.31535 10.2088C7.30764 11.1549 6.32266 12.1232 5.33741 13.0844C5.04968 13.3696 4.93581 13.7302 5.0267 14.1278C5.23146 15.1115 6.40589 15.4721 7.17131 14.7813C7.78508 14.218 8.36846 13.64 8.9595 13.0545C9.14154 12.8743 9.25516 12.8365 9.45966 13.0394C10.3614 13.9402 11.2859 14.8263 12.218 15.6972C12.4225 15.8925 12.3998 16.0052 12.1953 16.1854C11.5966 16.7484 10.9979 17.3264 10.4069 17.9048C10.0206 18.2876 9.94475 18.7606 10.1493 19.2488C10.3538 19.7443 10.7704 19.9771 11.2027 19.9996C11.6421 20.007 11.9451 19.9094 12.1726 19.6766C13.1726 18.7231 14.1729 17.777 15.1505 16.801C15.6203 16.328 15.6203 15.6448 15.1429 15.1792C13.4379 13.505 11.7329 11.8605 10.0053 10.2162Z" fill="#10847E"/><mask id="mask19_2147_109150" maskUnits="userSpaceOnUse" x="4" y="9" width="12" height="11" style="mask-type: alpha;"><path fill-rule="evenodd" clip-rule="evenodd" d="M8.31524 10.2088C7.30753 11.1549 6.32255 12.1232 5.33757 13.0844C5.04957 13.3696 4.93596 13.7304 5.02659 14.1281C5.23135 15.1117 6.40578 15.4721 7.17146 14.7813C7.78497 14.2183 8.36835 13.6402 8.95965 13.0542C9.14143 12.8743 9.25504 12.8367 9.45954 13.0394C10.3616 13.9402 11.2858 14.8263 12.2179 15.6972C12.4224 15.8927 12.4 16.0052 12.1952 16.1854C11.5968 16.7486 10.9978 17.3264 10.4067 17.9045C10.0205 18.2876 9.94464 18.7606 10.1491 19.2488C10.3536 19.7443 10.7706 19.9771 11.2026 19.9996C11.6419 20.0073 11.9453 19.9094 12.1725 19.6766C13.1728 18.7233 14.1728 17.777 15.1504 16.801C15.6202 16.328 15.6202 15.6448 15.1428 15.1792C13.4378 13.505 11.7328 11.8605 10.0054 10.2162C9.75916 9.97969 9.45796 9.86328 9.15755 9.86328C8.8574 9.86328 8.55779 9.97969 8.31524 10.2088Z" fill="white"/></mask><g mask="url(#mask19_2147_109150)"><path fill-rule="evenodd" clip-rule="evenodd" d="M-97.7461 915.323H739.359V-12.623H-97.7461V915.323Z" fill="#10847E"/></g><path fill-rule="evenodd" clip-rule="evenodd" d="M18.5827 11.7247C18.257 11.4096 17.9386 11.0715 17.5901 10.7712C17.3552 10.5685 17.3021 10.4259 17.5069 10.1331C18.2266 9.08934 18.56 7.90303 18.5751 6.63417C18.5751 6.09366 18.4995 5.56797 18.3856 5.04994C17.105 0.117107 10.8233 -1.67745 7.04194 1.82144C5.87491 2.90246 4.74593 4.02131 3.60189 5.12508C2.53342 6.16112 1.45754 7.18976 0.396465 8.2258C0.0252464 8.5864 -0.0960272 9.02188 0.0783531 9.51715C0.252469 10.0127 0.63135 10.268 1.14683 10.3357C1.59388 10.3881 1.96509 10.2005 2.27581 9.88542C4.37471 7.85805 6.48128 5.83094 8.57278 3.80357C9.62594 2.77494 10.8688 2.36195 12.3312 2.51222C14.5892 2.75986 16.3018 4.91475 15.9911 7.11462C15.8471 8.09828 15.423 8.91684 14.703 9.60736C14.1648 10.1331 14.1043 10.8312 14.5892 11.3268C15.3242 12.0927 16.0973 12.8359 16.8854 13.5491C17.3853 14 18.1735 13.9322 18.6358 13.4515C19.1056 12.9486 19.0903 12.2427 18.5827 11.7247Z" fill="#10847E"/><mask id="mask20_2147_109150" maskUnits="userSpaceOnUse" x="0" y="0" width="19" height="14" style="mask-type: alpha;"><path fill-rule="evenodd" clip-rule="evenodd" d="M7.0422 1.82154C5.87518 2.90256 4.74593 4.02114 3.60189 5.12491C2.53342 6.16096 1.45728 7.18985 0.396465 8.22589C0.0252464 8.58623 -0.0960272 9.02197 0.0783531 9.51724C0.252469 10.0128 0.631614 10.2678 1.14683 10.3355C1.59388 10.3882 1.96509 10.2006 2.27581 9.88525C4.37471 7.85815 6.48154 5.83078 8.57279 3.8034C9.62594 2.77477 10.8688 2.36205 12.3315 2.51206C14.5894 2.75996 16.3021 4.91458 15.9911 7.11472C15.8474 8.09837 15.4228 8.91668 14.703 9.60746C14.1648 10.1332 14.1046 10.8313 14.5894 11.3269C15.3245 12.0925 16.0973 12.836 16.8854 13.5492C17.3853 13.9998 18.1737 13.9323 18.6358 13.4513C19.1056 12.9487 19.0906 12.2425 18.5827 11.7248C18.257 11.4094 17.9386 11.0716 17.5901 10.7713C17.3552 10.5684 17.3021 10.4258 17.5069 10.1332C18.2266 9.08918 18.56 7.90286 18.5753 6.63426C18.5753 6.09376 18.4995 5.56806 18.3856 5.04978C17.5616 1.87498 14.665 0.000264658 11.6976 9.13125e-08C10.0542 -0.000264475 8.38969 0.574374 7.0422 1.82154Z" fill="white"/></mask><g mask="url(#mask20_2147_109150)"><path fill-rule="evenodd" clip-rule="evenodd" d="M0 14.3563H19.4238V-0.0742188H0V14.3563Z" fill="#10847E"/></g></svg>