<svg xmlns="http://www.w3.org/2000/svg" viewBox="0 0 84 28" class="c-cZuCZG c-cZuCZG-hNOgxQ-size-medium c-cZuCZG-dmsdwv-rotate-up c-cZuCZG-ihvvXoB-css"><mask id="mask0_4018_48094" maskUnits="userSpaceOnUse" x="8" y="8" width="11" height="20"><path fill-rule="evenodd" clip-rule="evenodd" d="M8.18164 8.46484H18.7011V27.8152H8.18164V8.46484Z" fill="white"/></mask><g mask="url(#mask0_4018_48094)"><path fill-rule="evenodd" clip-rule="evenodd" d="M8.18164 8.46484H18.7011V22.5553C18.7011 25.4603 16.3461 27.8153 13.4416 27.8153C10.5366 27.8153 8.18164 25.4603 8.18164 22.5553V8.46484Z" fill="#FDE0A5"/></g><path fill-rule="evenodd" clip-rule="evenodd" d="M8.18164 19.3498V8.46484H21.5326C24.4876 8.46484 26.8831 10.8603 26.8831 13.8158V13.9998C26.8831 16.9543 24.4876 19.3498 21.5326 19.3498H8.18164Z" fill="#FDE0A5"/><path fill-rule="evenodd" clip-rule="evenodd" d="M18.7011 19.35H8.18164V5.2595C8.18164 2.355 10.5366 0 13.4411 0C16.3461 0 18.7011 2.355 18.7011 5.2595V19.35Z" fill="#FDBA2B"/><path fill-rule="evenodd" clip-rule="evenodd" d="M18.7015 8.46484V19.3498H5.35C2.3955 19.3498 0 16.9543 0 13.9993V13.8153C0 10.8603 2.3955 8.46484 5.35 8.46484H18.7015Z" fill="#FDBA2B"/><path fill-rule="evenodd" clip-rule="evenodd" d="M38.1539 14.4482C40.2689 14.4482 41.4659 13.4193 41.4659 11.4688C41.4659 9.75525 40.5749 8.56925 38.8409 8.56925H36.8034V14.4482H38.1539ZM30.9424 23.9918V21.7508L32.8529 20.9593V8.56925L30.9424 7.77775V5.53725L36.8034 5.40625H39.2244C43.1219 5.40625 45.4159 7.51425 45.4159 10.9428C45.4159 15.3708 42.7909 17.5328 38.1539 17.5328H36.8034V20.9593L38.7144 21.7508V23.9918H30.9424Z" fill="#FDBA2B"/><path fill-rule="evenodd" clip-rule="evenodd" d="M52.4534 21.2221L54.7459 21.8801V23.9901H46.5674V21.8801L48.6069 21.2221V6.40509L46.5674 5.87959V3.77009L52.4534 3.55859V21.2221Z" fill="#FDBA2B"/><path fill-rule="evenodd" clip-rule="evenodd" d="M55.2598 11.9944V9.88641L61.1208 9.75391V18.8499C61.1208 20.2994 61.5273 20.9579 62.6753 20.9579C64.3318 20.9579 65.5533 19.5344 65.5533 19.5344V12.6544L63.5163 11.9944V9.88641L69.3748 9.75391V21.2219L71.4148 21.7494V23.8049L66.0383 23.9899L65.7833 22.1439C65.7833 22.1439 63.7458 24.2539 61.3248 24.2539C58.7758 24.2539 57.2988 22.4879 57.2988 19.5344V12.6544L55.2598 11.9944Z" fill="#FDBA2B"/><path fill-rule="evenodd" clip-rule="evenodd" d="M77.5373 21.3567C78.9383 21.3567 79.6253 20.9077 79.6253 20.0637C79.6253 17.9017 72.8223 18.6927 72.8223 13.9997C72.8223 10.7057 75.3713 9.49219 78.0723 9.49219C80.3648 9.49219 82.8108 10.2832 82.8108 10.2832L82.7098 14.2372H80.5438L80.1603 12.6567C80.1603 12.6567 79.4228 12.3927 78.4028 12.3927C77.3078 12.3927 76.6443 12.8662 76.6443 13.7382C76.6443 15.8722 83.4468 14.9502 83.4468 19.5107C83.4468 22.5422 81.0788 24.2557 77.5883 24.2557C75.1673 24.2557 72.9003 23.6762 72.9003 23.6762V19.3792H75.1928L75.3968 21.0927C75.3968 21.0927 76.2883 21.3567 77.5373 21.3567Z" fill="#FDBA2B"/></svg>